<mxfile host="app.diagrams.net" modified="2024-01-25T08:22:12.300Z" agent="Mozilla/5.0 (Windows NT 10.0; Win64; x64) AppleWebKit/537.36 (KHTML, like Gecko) Chrome/121.0.0.0 Safari/537.36" etag="VNbY9-M0GKRvc_d902tr" version="23.0.1" type="device">
  <diagram name="페이지-1" id="qXT5kiw5uoE3pJZx7ctv">
    <mxGraphModel dx="794" dy="724" grid="1" gridSize="10" guides="1" tooltips="1" connect="1" arrows="1" fold="1" page="1" pageScale="1" pageWidth="827" pageHeight="1169" math="0" shadow="0">
      <root>
        <mxCell id="0" />
        <mxCell id="1" parent="0" />
        <mxCell id="mj5Ci1OzQnHQcEd_hcI6-14" value="" style="edgeStyle=orthogonalEdgeStyle;rounded=0;orthogonalLoop=1;jettySize=auto;html=1;entryX=0.5;entryY=0;entryDx=0;entryDy=0;" edge="1" parent="1" source="mj5Ci1OzQnHQcEd_hcI6-1" target="mj5Ci1OzQnHQcEd_hcI6-2">
          <mxGeometry relative="1" as="geometry" />
        </mxCell>
        <mxCell id="mj5Ci1OzQnHQcEd_hcI6-15" value="" style="edgeStyle=orthogonalEdgeStyle;rounded=0;orthogonalLoop=1;jettySize=auto;html=1;entryX=0.5;entryY=0;entryDx=0;entryDy=0;" edge="1" parent="1" source="mj5Ci1OzQnHQcEd_hcI6-1" target="mj5Ci1OzQnHQcEd_hcI6-3">
          <mxGeometry relative="1" as="geometry">
            <mxPoint x="330" y="330" as="targetPoint" />
          </mxGeometry>
        </mxCell>
        <mxCell id="mj5Ci1OzQnHQcEd_hcI6-26" style="edgeStyle=orthogonalEdgeStyle;rounded=0;orthogonalLoop=1;jettySize=auto;html=1;entryX=0.5;entryY=0;entryDx=0;entryDy=0;" edge="1" parent="1" source="mj5Ci1OzQnHQcEd_hcI6-1" target="mj5Ci1OzQnHQcEd_hcI6-4">
          <mxGeometry relative="1" as="geometry">
            <Array as="points">
              <mxPoint x="620" y="211" />
              <mxPoint x="620" y="240" />
              <mxPoint x="750" y="240" />
            </Array>
          </mxGeometry>
        </mxCell>
        <mxCell id="mj5Ci1OzQnHQcEd_hcI6-28" style="edgeStyle=orthogonalEdgeStyle;rounded=0;orthogonalLoop=1;jettySize=auto;html=1;entryX=0.5;entryY=0;entryDx=0;entryDy=0;" edge="1" parent="1" source="mj5Ci1OzQnHQcEd_hcI6-1" target="mj5Ci1OzQnHQcEd_hcI6-27">
          <mxGeometry relative="1" as="geometry" />
        </mxCell>
        <mxCell id="mj5Ci1OzQnHQcEd_hcI6-32" style="edgeStyle=orthogonalEdgeStyle;rounded=0;orthogonalLoop=1;jettySize=auto;html=1;" edge="1" parent="1" source="mj5Ci1OzQnHQcEd_hcI6-1" target="mj5Ci1OzQnHQcEd_hcI6-31">
          <mxGeometry relative="1" as="geometry" />
        </mxCell>
        <mxCell id="mj5Ci1OzQnHQcEd_hcI6-38" style="edgeStyle=orthogonalEdgeStyle;rounded=0;orthogonalLoop=1;jettySize=auto;html=1;entryX=0.5;entryY=1;entryDx=0;entryDy=0;" edge="1" parent="1" source="mj5Ci1OzQnHQcEd_hcI6-1" target="mj5Ci1OzQnHQcEd_hcI6-37">
          <mxGeometry relative="1" as="geometry" />
        </mxCell>
        <mxCell id="mj5Ci1OzQnHQcEd_hcI6-1" value="메인 페이지" style="rounded=0;whiteSpace=wrap;html=1;" vertex="1" parent="1">
          <mxGeometry x="305" y="180" width="125" height="62.5" as="geometry" />
        </mxCell>
        <mxCell id="mj5Ci1OzQnHQcEd_hcI6-42" style="edgeStyle=orthogonalEdgeStyle;rounded=0;orthogonalLoop=1;jettySize=auto;html=1;entryX=0.5;entryY=0;entryDx=0;entryDy=0;" edge="1" parent="1" source="mj5Ci1OzQnHQcEd_hcI6-2" target="mj5Ci1OzQnHQcEd_hcI6-41">
          <mxGeometry relative="1" as="geometry" />
        </mxCell>
        <mxCell id="mj5Ci1OzQnHQcEd_hcI6-2" value="자료검색 페이지&lt;br&gt;&lt;br&gt;* 도서관별 필터검색" style="rounded=0;whiteSpace=wrap;html=1;" vertex="1" parent="1">
          <mxGeometry x="10" y="340" width="120" height="60" as="geometry" />
        </mxCell>
        <mxCell id="mj5Ci1OzQnHQcEd_hcI6-18" value="" style="edgeStyle=orthogonalEdgeStyle;rounded=0;orthogonalLoop=1;jettySize=auto;html=1;entryX=0.5;entryY=0;entryDx=0;entryDy=0;" edge="1" parent="1" source="mj5Ci1OzQnHQcEd_hcI6-3" target="mj5Ci1OzQnHQcEd_hcI6-6">
          <mxGeometry relative="1" as="geometry">
            <mxPoint x="560" y="600" as="targetPoint" />
          </mxGeometry>
        </mxCell>
        <mxCell id="mj5Ci1OzQnHQcEd_hcI6-19" value="" style="edgeStyle=orthogonalEdgeStyle;rounded=0;orthogonalLoop=1;jettySize=auto;html=1;" edge="1" parent="1" source="mj5Ci1OzQnHQcEd_hcI6-3" target="mj5Ci1OzQnHQcEd_hcI6-4">
          <mxGeometry relative="1" as="geometry" />
        </mxCell>
        <mxCell id="mj5Ci1OzQnHQcEd_hcI6-20" value="" style="edgeStyle=orthogonalEdgeStyle;rounded=0;orthogonalLoop=1;jettySize=auto;html=1;" edge="1" parent="1" source="mj5Ci1OzQnHQcEd_hcI6-3" target="mj5Ci1OzQnHQcEd_hcI6-5">
          <mxGeometry relative="1" as="geometry" />
        </mxCell>
        <mxCell id="mj5Ci1OzQnHQcEd_hcI6-39" style="edgeStyle=orthogonalEdgeStyle;rounded=0;orthogonalLoop=1;jettySize=auto;html=1;exitX=1;exitY=0.25;exitDx=0;exitDy=0;" edge="1" parent="1" source="mj5Ci1OzQnHQcEd_hcI6-3" target="mj5Ci1OzQnHQcEd_hcI6-7">
          <mxGeometry relative="1" as="geometry" />
        </mxCell>
        <mxCell id="mj5Ci1OzQnHQcEd_hcI6-3" value="로그인 페이지" style="rounded=0;whiteSpace=wrap;html=1;" vertex="1" parent="1">
          <mxGeometry x="475" y="320" width="120" height="60" as="geometry" />
        </mxCell>
        <mxCell id="mj5Ci1OzQnHQcEd_hcI6-4" value="회원가입 페이지" style="rounded=0;whiteSpace=wrap;html=1;" vertex="1" parent="1">
          <mxGeometry x="690" y="320" width="120" height="60" as="geometry" />
        </mxCell>
        <mxCell id="mj5Ci1OzQnHQcEd_hcI6-5" value="아이디,비밀번호 찾기&lt;br&gt;&amp;nbsp;페이지" style="rounded=0;whiteSpace=wrap;html=1;" vertex="1" parent="1">
          <mxGeometry x="320" y="440" width="150" height="60" as="geometry" />
        </mxCell>
        <mxCell id="mj5Ci1OzQnHQcEd_hcI6-30" style="edgeStyle=orthogonalEdgeStyle;rounded=0;orthogonalLoop=1;jettySize=auto;html=1;" edge="1" parent="1" source="mj5Ci1OzQnHQcEd_hcI6-6" target="mj5Ci1OzQnHQcEd_hcI6-29">
          <mxGeometry relative="1" as="geometry" />
        </mxCell>
        <mxCell id="mj5Ci1OzQnHQcEd_hcI6-6" value="마이 페이지&lt;br&gt;&lt;br&gt;- 내 정보&lt;br&gt;- 대출현황&lt;br&gt;- 예약현황&lt;br&gt;- 대출/예약 이전내역" style="rounded=0;whiteSpace=wrap;html=1;" vertex="1" parent="1">
          <mxGeometry x="475" y="400" width="120" height="100" as="geometry" />
        </mxCell>
        <mxCell id="mj5Ci1OzQnHQcEd_hcI6-7" value="관리자 페이지&lt;br&gt;&lt;br&gt;- 현재 회원목록&lt;br&gt;- 현재 책 대출현황/재고&lt;br&gt;&lt;br&gt;* 책 입출고 관리기능" style="rounded=0;whiteSpace=wrap;html=1;" vertex="1" parent="1">
          <mxGeometry x="610" y="40" width="170" height="90" as="geometry" />
        </mxCell>
        <mxCell id="mj5Ci1OzQnHQcEd_hcI6-8" value="" style="endArrow=classic;html=1;rounded=0;exitX=0.5;exitY=0;exitDx=0;exitDy=0;entryX=0.5;entryY=0;entryDx=0;entryDy=0;" edge="1" parent="1" source="mj5Ci1OzQnHQcEd_hcI6-2" target="mj5Ci1OzQnHQcEd_hcI6-2">
          <mxGeometry width="50" height="50" relative="1" as="geometry">
            <mxPoint x="349" y="330" as="sourcePoint" />
            <mxPoint x="399" y="280" as="targetPoint" />
          </mxGeometry>
        </mxCell>
        <mxCell id="mj5Ci1OzQnHQcEd_hcI6-13" value="" style="edgeStyle=orthogonalEdgeStyle;rounded=0;orthogonalLoop=1;jettySize=auto;html=1;" edge="1" parent="1" source="mj5Ci1OzQnHQcEd_hcI6-12" target="mj5Ci1OzQnHQcEd_hcI6-1">
          <mxGeometry relative="1" as="geometry">
            <mxPoint x="370" y="140" as="sourcePoint" />
          </mxGeometry>
        </mxCell>
        <mxCell id="mj5Ci1OzQnHQcEd_hcI6-12" value="일반사용자&lt;br&gt;" style="shape=umlActor;verticalLabelPosition=bottom;verticalAlign=top;html=1;" vertex="1" parent="1">
          <mxGeometry x="352.5" y="50" width="30" height="60" as="geometry" />
        </mxCell>
        <mxCell id="mj5Ci1OzQnHQcEd_hcI6-40" style="edgeStyle=orthogonalEdgeStyle;rounded=0;orthogonalLoop=1;jettySize=auto;html=1;entryX=0.75;entryY=0;entryDx=0;entryDy=0;" edge="1" parent="1" source="mj5Ci1OzQnHQcEd_hcI6-21" target="mj5Ci1OzQnHQcEd_hcI6-3">
          <mxGeometry relative="1" as="geometry" />
        </mxCell>
        <mxCell id="mj5Ci1OzQnHQcEd_hcI6-21" value="관리자" style="shape=umlActor;verticalLabelPosition=bottom;verticalAlign=top;html=1;" vertex="1" parent="1">
          <mxGeometry x="480" y="60" width="30" height="60" as="geometry" />
        </mxCell>
        <mxCell id="mj5Ci1OzQnHQcEd_hcI6-27" value="도서관안내 페이지&lt;br&gt;&lt;br&gt;- 이용시간&lt;br&gt;- 위치&lt;br&gt;- 연락처&lt;br&gt;- 특이사항" style="rounded=0;whiteSpace=wrap;html=1;" vertex="1" parent="1">
          <mxGeometry x="160" y="340" width="120" height="90" as="geometry" />
        </mxCell>
        <mxCell id="mj5Ci1OzQnHQcEd_hcI6-29" value="내 정보 페이지&lt;br&gt;&lt;br&gt;- 현재 아이디&lt;br&gt;- 현재 주소&lt;br&gt;- 현재 연락처&lt;br&gt;- 현재 이메일&lt;br&gt;&lt;br&gt;* 비밀번호변경기능&lt;br&gt;* 주소변경기능&lt;br&gt;* 연락처변경기능&lt;br&gt;* 이메일변경기능" style="rounded=0;whiteSpace=wrap;html=1;" vertex="1" parent="1">
          <mxGeometry x="475" y="540" width="120" height="170" as="geometry" />
        </mxCell>
        <mxCell id="mj5Ci1OzQnHQcEd_hcI6-31" value="공지사항 페이지" style="rounded=0;whiteSpace=wrap;html=1;" vertex="1" parent="1">
          <mxGeometry x="10" y="60" width="120" height="60" as="geometry" />
        </mxCell>
        <mxCell id="mj5Ci1OzQnHQcEd_hcI6-37" value="QnA 페이지" style="rounded=0;whiteSpace=wrap;html=1;" vertex="1" parent="1">
          <mxGeometry x="160" y="60" width="120" height="60" as="geometry" />
        </mxCell>
        <mxCell id="mj5Ci1OzQnHQcEd_hcI6-41" value="자료검색 결과 페이지&lt;br&gt;&lt;br&gt;- 책 대출가능여부&lt;br&gt;- 책 정보&lt;br&gt;&lt;br&gt;* 페이징기능" style="rounded=0;whiteSpace=wrap;html=1;" vertex="1" parent="1">
          <mxGeometry x="10" y="440" width="120" height="100" as="geometry" />
        </mxCell>
      </root>
    </mxGraphModel>
  </diagram>
</mxfile>
